<?xml version="1.0" encoding="UTF-8"?>
<svg width="166px" height="76px" viewBox="0 0 166 76" version="1.1" xmlns="http://www.w3.org/2000/svg" xmlns:xlink="http://www.w3.org/1999/xlink">
    <!-- Generator: Sketch 46.1 (44463) - http://www.bohemiancoding.com/sketch -->
    <title>logo-uov</title>
    <desc>Created with Sketch.</desc>
    <defs>
        <polygon id="path-1" points="1.57462027e-15 41.2629335 1.57462027e-15 1.20002773e-14 36.7152228 0 73.4304455 1.20002773e-14 73.4304455 41.2629335 0 41.2629335"></polygon>
    </defs>
    <g id="Page-1" stroke="none" stroke-width="1" fill="none" fill-rule="evenodd">
        <g id="logo-uov">
            <polygon id="Fill-1" fill="#FFFFFF" fill-rule="nonzero" points="151.14104 19 145.638271 43.4863956 139.58407 19 125 19 136.832686 60 153.067751 60 166 19"></polygon>
            <g id="Group-11">
                <path d="M103.918069,48.6965778 C100.045132,48.6965778 96.9048678,44.6010222 96.9048678,39.5487113 C96.9048678,34.4964 100.045132,30.4008444 103.918069,30.4008444 C107.791006,30.4008444 110.93127,34.4964 110.93127,39.5487113 C110.93127,44.6010222 107.791006,48.6965778 103.918069,48.6965778 M123.857013,39.4076887 C123.857013,28.2145778 114.806683,19.1410222 103.642492,19.1410222 C92.4783004,19.1410222 83.4287955,28.2145778 83.4287955,39.4076887 L106.792657,59.4277778 C116.460973,57.9111556 123.857013,49.5258222 123.857013,39.4076887" id="Fill-2" fill="#FFFFFF" fill-rule="nonzero"></path>
                <path d="M51.2497527,19.1410222 L42.724175,19.1410222 L42.724175,45.1760887 C42.724175,48.5184 40.0764852,51.2282222 36.8108086,51.2282222 C33.545132,51.2282222 30.8974422,48.5184 30.8974422,45.1760887 L30.8974422,19.1410222 L22.3718647,19.1410222 L22.3718647,45.1760887 L22.3858911,45.1760887 C22.5327558,53.2076 28.9287954,59.6743556 36.8108086,59.6743556 C44.693647,59.6743556 51.0896864,53.2076 51.2365511,45.1760887 L51.2497527,45.1760887 L51.2497527,19.1410222 Z" id="Fill-4" fill="#FFFFFF" fill-rule="nonzero"></path>
                <g id="Group-8">
                    <g id="Fill-6-Clipped">
                        <mask id="mask-2" fill="white">
                            <use xlink:href="#path-1"></use>
                        </mask>
                        <g id="path-1"></g>
                        <path d="M6.90156765,37.8944444 C6.90156765,21.0469333 20.2464522,7.38888887 36.7076733,7.38888887 C46.3792905,7.38888887 54.9716996,12.1068 60.4164193,19.4129333 L73.4304455,30.5638222 C70.0517326,13.1387111 55.0360561,0 37.0170792,0 C17.435396,0 1.40651815,15.5175111 -0.00024752475,35.1913778 L7.08638614,41.2629335 C6.96757424,40.1567113 6.90156765,39.0336 6.90156765,37.8944444" id="Fill-6" fill="#FFFFFF" fill-rule="nonzero" mask="url(#mask-2)"></path>
                    </g>
                </g>
                <path d="M66.5137788,37.8944444 C66.5137788,54.7419556 53.1688943,68.4 36.7076733,68.4 C26.5756601,68.4 17.6292904,63.2210222 12.244802,55.3136444 L0.58391089,45.3221778 C3.91971947,62.8038665 18.9593234,76 37.0170792,76 C56.6292905,76 72.6779705,60.4343556 74.0410064,40.7182665 L66.2712045,34.0606667 C66.4254951,35.3172 66.5137788,36.5948444 66.5137788,37.8944444" id="Fill-9" fill="#FFFFFF" fill-rule="nonzero"></path>
            </g>
        </g>
    </g>
</svg>
